<svg xmlns="http://www.w3.org/2000/svg" viewBox="315.6 490.2 156.8 156.8"><circle fill="#FFF" cx="394" cy="568.6" r="78.4"/><path fill="#2198F3" d="M394 516.5c-24.4 0-44.2 19.8-44.2 44.2 0 16.8 9.2 31.3 23 38.8l-.6 18.3 20.8-13 1 .2c24.4 0 44.2-19.8 44.2-44.3 0-24.4-19.8-44.2-44.2-44.2zm-2 70.8c-4 0-6.6-3-6.6-6.7 0-4 2.7-6.8 6.6-6.8 4 0 6.7 2.8 6.7 6.8 0 3.8-2.7 6.7-6.7 6.7zm9-27.7c-2.7 3-3.8 6-3.8 9.3v1h-10v-2c-.2-3.7 1-7.6 4.4-11.6 2.4-2.8 4.4-5.2 4.4-7.8 0-2.6-1.8-4.3-5.5-4.4-2.4 0-5.4 1-7.4 2.2l-2.2-8c2.7-1.7 7-3.2 12.5-3.2 10 0 14.4 5.5 14.4 11.7 0 5.6-3.5 9.3-6.4 12.5z"/></svg>