<svg id="Layer_1" xmlns="http://www.w3.org/2000/svg" width="300" height="100" viewBox="0 0 300 100"><style>.st0{fill-rule:evenodd;clip-rule:evenodd;fill:#fff}</style><path class="st0" d="M269.5 37.2c-.2-.1-.4-.2-.6-.2-3.2-1.3-6.4-2.5-9.6-3.8-2-.8-3.1-2.6-2.8-4.7.1-.4.2-.7.3-1.1 1.6-4.2 3.3-8.4 5-12.6.8-2 2.5-3.1 4.5-2.8.4 0 .9.2 1.3.4 3.2 1.2 6.4 2.5 9.6 3.8.2.1.3.1.6.2.1-.3.2-.6.4-.9.4-1 1.5-1.4 2.5-1.1 1.9.7 3.8 1.5 5.7 2.2 1 .4 1.4 1.4 1.1 2.4-.1.3-.2.6-.4 1 .2.1.4.2.6.2 3.2 1.3 6.5 2.5 9.7 3.8 1.9.8 3 2.6 2.7 4.5-.1.4-.2.9-.4 1.3-1.6 4.1-3.2 8.3-4.9 12.4-1 2.5-3.3 3.5-5.8 2.6-3.2-1.2-6.4-2.5-9.5-3.8-.2-.1-.3-.1-.6-.2-.1.2-.2.4-.2.6-5.6 14.2-11.2 28.3-16.8 42.5-.1.3-.2.6-.4.9-.5.8-1.4 1-2.4.7-1.8-.7-3.7-1.4-5.5-2.2-1.2-.5-1.6-1.5-1.1-2.8 3-7.5 5.9-15.1 8.9-22.6 2.6-6.7 5.3-13.4 7.9-20.1 0-.2.1-.3.2-.6zm1.2.5c-5.7 14.4-11.3 28.7-17 43.1 1.2.5 2.3.9 3.4 1.4 1.1.4 1.7.2 2.1-.9l16.2-41.1c.1-.2.1-.3.2-.5-1.6-.7-3.2-1.3-4.9-2zm-10.2-16c-.9 2.2-1.7 4.4-2.6 6.7-.3.9-.2 1.7.3 2.5.2.3.4.3.7.3 1-.3 1.7-.8 2.1-1.8 1.7-4.3 3.4-8.7 5.1-13 .4-.9.2-1.9-.3-2.7-.2-.2-.3-.3-.6-.2-1.1.3-1.8.9-2.2 1.9-.8 2-1.6 4.1-2.5 6.3zm18.5-4.9c1.6.6 3.3 1.3 4.9 1.9l.6-1.5c-1.2-.5-2.4-.9-3.6-1.4-1.4-.5-1.5-.2-1.9 1zM7.5 24.5v19.1c.1 0 .1.1.2.1.2-.2.3-.4.5-.7 3.6-4.9 8.3-6.4 13.9-5.2 6.2 1.3 10.6 5.1 12.3 11.2 1.9 6.7 1 13-3.8 18.4-4.5 5-11.4 6.5-17.4 3.8-1.8-.8-3.4-2-4.8-3.5-.3-.1-.4-.4-.6-.7-.1.1-.2.1-.2.2v4.9H.5V24.6c2.2-.1 4.5-.1 7-.1zm-.2 30.6c.2 1.1.2 2.3.5 3.3 1.6 6.7 9.2 9.8 15.1 6.2 6.6-4 6.4-13.7 1.7-18-3.9-3.6-9.3-4-13.3-.6-2.7 2.4-3.9 5.5-4 9.1zM237 38c-1.3 3.1-2.5 6.1-3.7 9-4.2 10.4-8.5 20.7-12.7 31.1-1.3 3.1-3.3 5.5-6.5 6.8-3.8 1.5-7.4.9-10.8-1.2-.6-.4-1.1-.8-1.7-1.3 1.1-2 2.2-3.9 3.2-5.7 1.1.6 2 1.3 3.1 1.6 3.3 1.2 6.9-1.4 7-4.9 0-.4-.1-.9-.3-1.3-3.3-8.5-6.7-17.1-10.1-25.6-1.1-2.8-2.2-5.5-3.4-8.4.3 0 .6-.1.8-.1h6.1c.6 0 .9.2 1.1.8 3.1 7.8 6.3 15.7 9.5 23.5.1.2.2.5.4.9.2-.4.3-.6.4-.9 3.2-7.8 6.4-15.7 9.5-23.5.2-.5.5-.7 1.1-.7 2.4-.1 4.6-.1 7-.1zM78.6 38h7.2v19.4c0 1.2.2 2.4.5 3.6 1 3.5 3.7 5.3 7.6 5.1 5.3-.3 8.8-3.7 8.8-9 .1-6 0-12 0-18v-1h7.2v34h-7.1v-5.8c-.1 0-.1-.1-.2-.1-.2.2-.3.4-.5.7-2.4 3.4-5.6 5.4-9.8 5.7-3.5.3-6.7-.5-9.5-2.7-3-2.5-4.2-5.8-4.3-9.5-.1-3.2-.1-6.4-.1-9.6V39.1c.2-.4.2-.7.2-1.1zM127.6 72.1h-7.1v-34h7.1v6.1c.7-.9 1.1-1.6 1.7-2.2 4.6-5.4 13.6-6 18.8-1.2 2.2 2.1 3.3 4.7 3.7 7.6.1 1.2.2 2.5.2 3.7V72h-7.2v-.9-17.4c0-1.5-.1-3-.5-4.5-.9-3.6-3.7-5.5-7.6-5.3-5.3.3-8.7 3.5-8.9 8.8-.2 6.1-.1 12.1-.1 18.2-.1.4-.1.7-.1 1.2zM163.1 43.7h-4.3V38h4.3V27.3h7.2V38h8.9v5.8h-8.9c0 .3-.1.5-.1.7v16.6c0 1.6.3 3 1.5 4.1 1.6 1.6 4.4 1.7 6.4.3.5-.3.9-.7 1.4-1.2.5.8 1 1.7 1.5 2.5s.9 1.6 1.4 2.5c-1.8 1.7-3.9 2.8-6.4 3.3-5.1.9-10.1-1.8-12.1-6.4-.8-1.8-.9-3.8-.9-5.8V44.9c.1-.4.1-.7.1-1.2zM68.5 72.1h-7.1V24.6h7.1v47.5zM188.3 24.5h7.1V72h-7.1V24.5zM52 67.9c0 2.6-2.2 4.8-4.8 4.8-2.6 0-4.7-2.1-4.8-4.8 0-2.6 2.1-4.8 4.8-4.7 2.7-.1 4.8 2 4.8 4.7z"/></svg>