<svg id="Layer_1" xmlns="http://www.w3.org/2000/svg" width="300" height="100"><style>.st0{fill-rule:evenodd;clip-rule:evenodd;fill:#fff}</style><path class="st0" d="M269.5 37.2l-.6-.2-9.7-3.8c-2-.8-3-2.6-2.8-4.7 0-.4.2-.7.3-1l5-12.7c.8-2 2.5-3 4.5-2.8.4 0 1 .2 1.3.4l9.6 3.8.6.2c0-.3.2-.6.4-1 .4-1 1.5-1.3 2.5-1l5.7 2.2c1 .4 1.4 1.4 1 2.4 0 .3 0 .6-.3 1l.7.2 9.7 3.8c2 .8 3 2.6 2.7 4.5 0 .4 0 1-.3 1.3-1.6 4-3.2 8.3-5 12.4-1 2.5-3.2 3.5-5.7 2.6l-9.5-3.8-.6-.2-.3.6L262 84l-.5.8c-.5.8-1.4 1-2.4.7l-5.4-2.2c-1.2-.5-1.6-1.5-1-2.8l8.8-22.6 8-20.2v-.6zm1.2.5l-17 43 3.4 1.5c1.2.4 1.8.2 2.2-1l16.2-41c0-.2 0-.3.2-.5l-5-2zm-10.2-16c-1 2.2-1.7 4.4-2.6 6.7-.4 1-.3 1.7.2 2.5.2.2.4.2.7.2 1-.3 1.6-.8 2-1.8l5-13c.5-1 .3-2-.2-2.7-.2-.2-.3-.3-.6-.2-1 .3-1.8 1-2.2 2l-2.5 6.2zm18.5-5l5 2 .5-1.5-3.6-1.4c-1.5-.5-1.6-.2-2 1zM7.5 24.6v19s0 .2.2.2l.5-.7c3.6-5 8.3-6.4 14-5.2 6 1.3 10.5 5 12.2 11.2 2 6.7 1 13-3.8 18.4-4.5 5-11.4 6.5-17.4 3.8-1.8-.8-3.4-2-4.8-3.5-.3 0-.4-.4-.6-.7 0 0-.2 0-.2.2v5h-7V24.5h7zM7.3 55c.2 1.2.2 2.4.5 3.4 1.6 6.7 9.2 9.8 15 6.2 6.7-4 6.5-13.7 1.8-18-4-3.6-9.3-4-13.3-.6-2.7 2.4-4 5.5-4 9zM237 38l-3.7 9-12.7 31c-1.3 3.2-3.3 5.6-6.5 7-3.7 1.4-7.3.8-10.7-1.3l-1.7-1.3c1-2 2.2-4 3.2-5.7 1 .6 2 1.3 3 1.6 3.4 1.2 7-1.4 7-5 0-.3 0-.8-.2-1.2l-10-25.5L201 38h7c.6 0 1 .2 1 .8l9.6 23.5.4 1 .4-1 9.5-23.5c0-.5.4-.7 1-.7h7zM78.6 38h7.2v19.4c0 1.2.2 2.4.5 3.6 1 3.5 3.7 5.3 7.6 5 5.2-.2 8.7-3.6 8.7-9V38h7.2v34h-7.2v-5.7h-.2c-.2 0-.3.3-.5.6-2.3 3.3-5.5 5.3-9.7 5.6-3.5.3-6.7-.5-9.5-2.7-3-2.6-4.2-6-4.3-9.6V39v-1zm49 34h-7V38h7v6.2c.7-1 1-1.6 1.7-2.2 4.6-5.4 13.6-6 18.8-1.2 2.3 2 3.4 4.7 3.8 7.6l.2 3.7v20h-7.2V53.7c0-1.5 0-3-.5-4.5-1-3.6-3.7-5.5-7.6-5.3-5.3.2-8.7 3.4-9 8.7V72zM163 43.8H159V38h4.3V27.3h7.3V38h9v5.8h-9V61c0 1.7.2 3 1.4 4.2 1.6 1.6 4.4 1.7 6.4.3.6-.3 1-.7 1.5-1.2l1.5 2.5 1.4 2.5c-1.8 1.7-4 2.8-6.4 3.3-5 1-10-1.8-12-6.4-1-1.8-1-3.8-1-5.8V45v-1.3zM68.6 72h-7V24.7h7V72zm119.8-47.5h7V72h-7V24.5zM52 68c0 2.5-2.2 4.7-4.8 4.7-2.6 0-4.7-2-4.8-4.8 0-2.7 2-5 4.8-4.8 2.7 0 4.8 2 4.8 4.7z"/></svg>