<?xml version="1.0" encoding="utf-8"?>
<!-- Generator: Adobe Illustrator 16.0.0, SVG Export Plug-In . SVG Version: 6.00 Build 0)  -->
<!DOCTYPE svg PUBLIC "-//W3C//DTD SVG 1.1//EN" "http://www.w3.org/Graphics/SVG/1.1/DTD/svg11.dtd">
<svg version="1.1" xmlns="http://www.w3.org/2000/svg" xmlns:xlink="http://www.w3.org/1999/xlink" x="0px" y="0px"
	 width="581.083px" height="532.214px" viewBox="0 0 581.083 532.214" enable-background="new 0 0 581.083 532.214"
	 xml:space="preserve">
<g id="Layer_2">
</g>
<g id="Layer_1">
	<path fill="#F5F5F5" d="M429.734,203.234c0,112.243-71.374,203.235-214.867,203.235C71.375,406.469,0,315.477,0,203.234
		S71.375,0,214.867,0C358.36,0,429.734,90.991,429.734,203.234z"/>
	<g>
		<g>
			<g>
				<path fill="#FDDCBE" d="M308.659,445.597c0,0-3.219-308.273,175.461-180.67c0,0,35.202,25.129,52.672,186.537
					C444.44,598.984,308.659,445.597,308.659,445.597z"/>
			</g>
			<g>
				<path fill="#F5F5F5" d="M536.792,451.464c0,0-125.678,15.084-227.746-23.66l-5.658,104.41h228.032L536.792,451.464z"/>
			</g>
			<g>
				<path fill="#533E29" d="M351.619,139.324c0,0-95.772,141.63,142.065,166.91l-1.712,48.98c0,0,22.745-20.518,29.951,4.824
					c7.335,25.799-29.069,13.922-29.069,13.922c3.21,6.875,22.855,53.844,43.938,77.504c1.573,1.766,87.616-186.262,15.589-188.35
					c3.544-43.571-27.836-72.448-73.362-83.003C408.559,163.777,379.719,234.65,351.619,139.324z"/>
			</g>
			<g>
				<path fill="#E6E7E8" d="M489.684,532.214c2.39-19.965,5.879-37.906,7.631-61.363l31.553,2.938
					c-0.899,18.209-3.047,40.529-4.994,58.426H489.684z"/>
			</g>
			<g>
				<path fill="#E6E7E8" d="M366.193,532.214h-17.845c-3.418-5.975-7.564-11.799-12.194-17.586l7.038-40.328l-6.641-11.445
					l5.469-9.275l19.853,3.086l4.051,7.938l-8.804,11.436L366.193,532.214z"/>
			</g>
			<g>
				<polygon fill="#533E29" points="360.917,532.214 327.75,532.214 343.192,474.3 336.551,462.855 342.02,453.58 361.873,456.666 
					365.923,464.603 357.12,476.039 				"/>
			</g>
			<g>
				<path fill="#FDDCBE" d="M484.932,532.214c4.801-21.215,8.377-39.045,12.826-64.461l31.109,6.035
					c-2.793,18.717-6.532,40.17-10.406,58.426H484.932z"/>
			</g>
			<g>
				<path fill="#533E29" d="M426.301,344.195c-3.17,9.912-1.508,16.428,2.685,17.768c4.192,1.342,9.327-2.998,12.499-12.91
					c3.17-9.912,1.508-16.428-2.684-17.77C434.608,329.943,429.473,334.283,426.301,344.195z"/>
			</g>
			<g>
				<path fill="#533E29" d="M340.807,319.382c-3.17,9.914-1.508,16.428,2.685,17.77s9.328-3,12.499-12.912
					s1.509-16.428-2.684-17.768C349.114,305.13,343.979,309.47,340.807,319.382z"/>
			</g>
			<g>
				<g>
					<path fill="#F5F5F5" d="M497.758,467.753l31.109,6.035c-1.427,9.561-3.102,19.834-4.914,30.033l-31.662-6.391
						C494.063,488.369,495.829,478.775,497.758,467.753z"/>
				</g>
			</g>
		</g>
		<g>
			<g>
				<path fill="#533E29" d="M415.489,410.64c0,0-4.217-4.828-11.221-11.426c-1.746-1.652-3.68-3.4-5.761-5.213
					c-2.072-1.822-4.344-3.646-6.724-5.498c-2.379-1.854-4.914-3.678-7.557-5.443c-2.639-1.768-5.404-3.457-8.282-4.971
					c-2.868-1.529-5.845-2.887-8.896-3.992c-3.059-1.09-6.232-1.816-9.396-2.066l-1.184-0.076c-0.396,0.008-0.79,0.016-1.183,0.023
					c-0.392,0.01-0.782,0.02-1.171,0.029l-0.146,0.006l-0.133,0.01l-0.066,0.01l-0.271,0.031l-0.537,0.064
					c-0.678,0.057-1.529,0.25-2.293,0.398c-0.746,0.215-1.482,0.404-2.186,0.707c-1.41,0.555-2.736,1.283-3.855,2.203
					c-1.117,0.92-2.041,1.979-2.771,3.074c-0.744,1.092-1.252,2.242-1.637,3.346c-0.379,1.105-0.654,2.17-0.796,3.182
					c-0.318,2.018-0.309,3.777-0.2,5.203c0.108,1.428,0.268,2.533,0.433,3.279c0.158,0.746,0.272,1.139,0.272,1.139l0.322-0.059
					c0,0-0.027-0.395-0.024-1.139c0.008-0.744,0.007-1.836,0.147-3.205c0.148-1.365,0.393-3.016,0.916-4.805
					c0.519-1.783,1.345-3.717,2.69-5.414c1.351-1.684,3.235-3.09,5.587-3.832c2.314-0.797,5.057-0.939,7.863-0.775
					c2.818,0.139,5.739,0.742,8.67,1.578c2.925,0.873,5.826,2.068,8.664,3.416c2.838,1.354,5.599,2.896,8.252,4.531
					c2.655,1.631,5.219,3.33,7.638,5.068c4.843,3.469,9.205,6.949,12.853,10.043c7.292,6.197,11.744,10.795,11.744,10.795
					L415.489,410.64z"/>
			</g>
		</g>
		<path fill="#F2F2F2" d="M317.491,426.826c0,0,20.722,65.557,50.385,105.268l35.611,0.121c0,0-38.721-47.828-54.11-101.662
			c0,0,11.576-11.316,9.047-15.596c-2.528-4.277-9.413,8.449-12.464,5.137c-7.217-7.838-1.693-28.805-7.143-29.459
			c-5.448-0.654-5.236,18.01-3.977,21.557c-2.699-4.137-7.066-2.426-5.814,2.932c-2.89-4.455-7.99-0.838-6.461,3.891
			C318.762,415.003,314.627,419.185,317.491,426.826z"/>
		<path fill="#FDDCBE" d="M314.952,427.121c0,0,20.945,65.484,50.742,105.094h35.613c0,0-38.885-47.695-54.457-101.477
			c0,0,11.537-11.355,8.993-15.627c-2.544-4.27-9.384,8.482-12.446,5.18c-7.243-7.813-1.793-28.799-7.243-29.436
			c-5.45-0.635-5.175,18.029-3.902,21.572c-2.714-4.129-7.075-2.402-5.804,2.949c-2.906-4.443-7.994-0.811-6.449,3.914
			C316.182,415.292,312.062,419.49,314.952,427.121z"/>
		<path fill="#BEA58F" d="M313.932,420.978c0.09-0.391,0.138-0.793,0.307-1.164c0.117-0.391,0.346-0.734,0.559-1.088
			c0.271-0.314,0.554-0.623,0.93-0.832c0.363-0.207,0.785-0.352,1.211-0.357c0.215-0.035,0.422-0.002,0.631,0.037
			c0.21,0.031,0.42,0.064,0.607,0.158c0.19,0.082,0.395,0.145,0.573,0.244l0.521,0.332c0.092,0.059,0.168,0.133,0.252,0.199
			c-0.043-0.211-0.049-0.43-0.078-0.643c-0.041-0.258-0.01-0.518,0.006-0.777c0.003-0.26,0.057-0.516,0.121-0.77
			c0.045-0.258,0.134-0.504,0.242-0.744c0.086-0.25,0.217-0.477,0.362-0.697c0.124-0.234,0.304-0.43,0.481-0.629
			c0.16-0.213,0.391-0.359,0.594-0.531c0.203-0.174,0.463-0.27,0.694-0.406c0.251-0.094,0.514-0.178,0.778-0.236
			c0.271-0.012,0.545-0.086,0.816-0.037c0.27,0.039,0.549,0.047,0.799,0.16c0.26,0.086,0.519,0.174,0.738,0.332
			c0.231,0.139,0.466,0.273,0.648,0.465c0.045,0.045,0.094,0.086,0.142,0.129c-0.001-0.023-0.007-0.047-0.008-0.07
			c-0.01-0.24-0.052-0.477-0.021-0.723c0.021-0.242,0.017-0.488,0.064-0.73c0.086-0.486,0.232-0.975,0.491-1.422
			c0.147-0.215,0.267-0.447,0.474-0.623l0.287-0.275l0.344-0.215c0.219-0.162,0.498-0.201,0.748-0.299
			c0.264-0.025,0.536-0.086,0.797-0.053c0.263,0.029,0.529,0.047,0.771,0.145c0.253,0.068,0.49,0.164,0.707,0.295
			c0.232,0.111,0.441,0.248,0.633,0.408c0.093,0.066,0.167,0.148,0.253,0.221c-0.052-0.342-0.098-0.684-0.139-1.025
			c-0.107-0.934-0.172-1.867-0.214-2.801c-0.083-1.867-0.073-3.734,0.036-5.602c0.112-1.865,0.313-3.734,0.729-5.582
			c0.213-0.924,0.475-1.844,0.873-2.738c0.41-0.873,0.92-1.813,1.92-2.383l0.388-0.184c0.144-0.047,0.308-0.078,0.462-0.109
			c0.367-0.063,0.421-0.035,0.817-0.016c0.587,0.084,1.132,0.406,1.515,0.824c0.725,0.861,0.975,1.844,1.192,2.777
			c0.388,1.889,0.444,3.756,0.532,5.613c0.138,3.709,0.161,7.404,0.658,11.031c0.255,1.809,0.598,3.609,1.221,5.301
			c0.301,0.85,0.684,1.662,1.13,2.43c0.241,0.375,0.45,0.723,0.745,1.084l0.443,0.533c0.113,0.109,0.248,0.252,0.393,0.311
			c0.561,0.311,1.411-0.02,2.131-0.496c0.736-0.471,1.436-1.063,2.12-1.67c1.384-1.207,2.667-2.561,4.305-3.609
			c0.421-0.248,0.874-0.48,1.41-0.58c0.532-0.111,1.185,0.029,1.61,0.447c0.803,0.74,0.984,1.932,0.822,2.875
			c-0.324,1.949-1.316,3.592-2.318,5.158c-1.029,1.563-2.188,3.023-3.406,4.426c-1.197,1.379-2.443,2.709-3.75,3.986l2.873,9.6
			l-3.21-9.596c-0.019-0.055-0.007-0.117,0.036-0.16l0.005-0.004c1.282-1.324,2.51-2.709,3.68-4.135
			c1.163-1.43,2.284-2.896,3.269-4.441c0.959-1.541,1.885-3.191,2.135-4.924c0.123-0.854-0.053-1.721-0.646-2.248
			c-0.502-0.496-1.369-0.201-2.095,0.266c-1.475,0.975-2.751,2.346-4.128,3.596c-0.691,0.627-1.393,1.26-2.214,1.791
			c-0.408,0.266-0.85,0.512-1.366,0.66c-0.502,0.154-1.146,0.182-1.688-0.105c-0.28-0.133-0.479-0.326-0.689-0.543l-0.446-0.531
			c-0.293-0.354-0.578-0.795-0.836-1.197c-0.488-0.828-0.9-1.695-1.223-2.59c-0.668-1.783-1.029-3.643-1.303-5.494
			c-0.527-3.713-0.57-7.441-0.729-11.127c-0.092-1.836-0.178-3.688-0.531-5.432c-0.184-0.855-0.446-1.723-0.928-2.289
			c-0.25-0.26-0.531-0.43-0.869-0.484c-0.057-0.002-0.48-0.041-0.561,0.016l-0.213,0.051l-0.238,0.115
			c-0.639,0.342-1.118,1.105-1.478,1.885c-0.36,0.795-0.615,1.662-0.822,2.539c-0.407,1.762-0.616,3.588-0.735,5.414
			c-0.119,1.828-0.139,3.668-0.066,5.5c0.09,1.809,0.189,3.715,0.674,5.355c0.055,0.184-0.008,0.389-0.17,0.51
			c-0.207,0.154-0.5,0.111-0.654-0.098l-0.381-0.512c-0.117-0.182-0.279-0.314-0.42-0.471c-0.139-0.16-0.297-0.293-0.463-0.414
			c-0.156-0.139-0.324-0.254-0.506-0.34c-0.172-0.111-0.354-0.186-0.543-0.238c-0.184-0.084-0.375-0.09-0.564-0.119
			c-0.189-0.031-0.373,0.02-0.56,0.023c-0.168,0.076-0.366,0.08-0.515,0.199l-0.242,0.141l-0.205,0.195
			c-0.152,0.115-0.24,0.299-0.356,0.453c-0.204,0.338-0.33,0.729-0.411,1.137c-0.045,0.203-0.041,0.418-0.065,0.627
			c-0.032,0.209,0.005,0.426,0.009,0.641c-0.004,0.428,0.116,0.855,0.176,1.285l0.002,0.012c0.018,0.133-0.035,0.273-0.15,0.359
			c-0.17,0.129-0.411,0.096-0.539-0.074l-0.415-0.551c-0.124-0.199-0.315-0.322-0.472-0.486c-0.153-0.17-0.346-0.281-0.533-0.396
			c-0.179-0.139-0.386-0.207-0.592-0.281c-0.199-0.1-0.419-0.1-0.632-0.139c-0.214-0.049-0.431,0.02-0.647,0.018
			c-0.211,0.043-0.423,0.109-0.629,0.18c-0.189,0.111-0.405,0.18-0.577,0.324c-0.17,0.145-0.368,0.256-0.505,0.439
			c-0.152,0.164-0.311,0.326-0.42,0.527c-0.129,0.188-0.246,0.381-0.323,0.598c-0.099,0.207-0.181,0.42-0.222,0.646
			c-0.061,0.221-0.113,0.445-0.118,0.678c-0.017,0.229-0.052,0.459-0.017,0.689c0.028,0.23,0.01,0.465,0.076,0.691l0.16,0.682
			c0.018,0.084-0.002,0.184-0.064,0.254c-0.104,0.119-0.285,0.129-0.404,0.025c-0.281-0.242-0.531-0.535-0.838-0.74l-0.459-0.313
			c-0.157-0.096-0.332-0.15-0.496-0.229c-0.164-0.09-0.34-0.119-0.517-0.148c-0.176-0.041-0.353-0.076-0.528-0.049
			c-0.356-0.008-0.703,0.105-1.016,0.268c-0.145,0.105-0.316,0.174-0.441,0.307l-0.382,0.391c-0.196,0.314-0.416,0.615-0.534,0.979
			c-0.168,0.338-0.223,0.719-0.32,1.086c-0.064,0.375-0.092,0.76-0.125,1.141c0.012,0.383-0.001,0.77,0.03,1.154
			c0.05,0.381,0.087,0.768,0.147,1.148l0.252,1.135c0.102,0.375,0.23,0.742,0.344,1.113l1.4,4.475l-1.564-4.416
			c-0.126-0.371-0.266-0.74-0.38-1.115l-0.288-1.146c-0.072-0.387-0.121-0.779-0.183-1.168c-0.044-0.393-0.042-0.791-0.064-1.188
			C313.856,421.773,313.874,421.373,313.932,420.978z"/>
	</g>
</g>
<g id="Layer_3">
	<g>
		<path fill="#533E29" d="M188.919,276.911l-0.893-11.61c-2.679-24.113,5.358-50.46,27.686-77.253
			c20.095-23.667,31.259-41.083,31.259-61.177c0-22.774-14.29-37.957-42.422-38.403c-16.076,0-33.938,5.359-45.102,13.843
			l-10.717-28.133c14.736-10.717,40.189-17.862,63.857-17.862c51.353,0,74.573,31.705,74.573,65.643
			c0,30.365-16.969,52.246-38.403,77.7c-19.648,23.22-26.793,42.869-25.453,65.643l0.446,11.61H188.919z M179.095,339.427
			c0-16.522,11.164-28.133,26.793-28.133c15.629,0,26.346,11.61,26.346,28.133c0,15.629-10.271,27.686-26.793,27.686
			C189.812,367.113,179.095,355.056,179.095,339.427z"/>
	</g>
</g>
</svg>
