<svg xmlns="http://www.w3.org/2000/svg" width="277.7" height="392.9" viewBox="0 0 277.7 392.9"><style>.st0{fill:#e6e7e8}.st1{fill:#533e29}.st2{fill:#bea58f}.st3{fill:#f2f2f2}.st4{fill:#f5f5f5}.st5{fill:#fddcbe}</style><g id="Layer_1"><path class="st5" d="M272.4 306.3S275.6-2 96.9 125.6c0 0-35.2 25.1-52.7 186.5 92.4 147.6 228.2-5.8 228.2-5.8z"/><path class="st4" d="M44.3 312.1S170 327.2 272 288.4l5.7 104.4h-228l-5.4-80.7z"/><path class="st1" d="M229.5 0s95.8 141.6-142.1 166.9l1.7 49s-22.7-20.5-30 4.8c-7.3 25.8 29.1 13.9 29.1 13.9-3.2 6.9-22.9 53.8-43.9 77.5-1.6 1.8-87.6-186.3-15.6-188.3-3.5-43.6 27.8-72.4 73.4-83C172.5 24.5 201.4 95.3 229.5 0z"/><path class="st0" d="M91.4 392.9c-2.4-20-5.9-37.9-7.6-61.4l-31.6 2.9c.9 18.2 3 40.5 5 58.4h34.2zM214.9 392.9h17.8c3.4-6 7.6-11.8 12.2-17.6l-7-40.3 6.6-11.4-5.5-9.3-19.9 3.1-4.1 7.9 8.8 11.4-8.9 56.2z"/><path class="st1" d="M220.2 392.9h33.1L237.9 335l6.6-11.5-5.4-9.2-19.9 3-4 8 8.8 11.4z"/><path class="st5" d="M96.2 392.9c-4.8-21.2-8.4-39-12.8-64.5l-31.1 6c2.8 18.7 6.5 40.2 10.4 58.4h33.5z"/><path class="st1" d="M154.8 204.9c3.2 9.9 1.5 16.4-2.7 17.8-4.2 1.3-9.3-3-12.5-12.9s-1.5-16.4 2.7-17.8c4.2-1.4 9.3 3 12.5 12.9zM240.3 180.1c3.2 9.9 1.5 16.4-2.7 17.8-4.2 1.3-9.3-3-12.5-12.9-3.2-9.9-1.5-16.4 2.7-17.8 4.2-1.4 9.3 2.9 12.5 12.9z"/><path class="st4" d="M83.3 328.4l-31.1 6c1.4 9.6 3.1 19.8 4.9 30l31.7-6.4c-1.8-9-3.5-18.5-5.5-29.6z"/><path class="st1" d="M165.6 271.3s4.2-4.8 11.2-11.4c1.7-1.7 3.7-3.4 5.8-5.2 2.1-1.8 4.3-3.6 6.7-5.5 2.4-1.9 4.9-3.7 7.6-5.4 2.6-1.8 5.4-3.5 8.3-5 2.9-1.5 5.8-2.9 8.9-4 3.1-1.1 6.2-1.8 9.4-2.1l1.2-.1h3l.5.1c.7.1 1.5.3 2.3.4.7.2 1.5.4 2.2.7 1.4.6 2.7 1.3 3.9 2.2 1.1.9 2 2 2.8 3.1.7 1.1 1.3 2.2 1.6 3.3.4 1.1.7 2.2.8 3.2.3 2 .3 3.8.2 5.2-.1 1.4-.3 2.5-.4 3.3-.2.7-.3 1.1-.3 1.1l-.3-.1V254c0-.7 0-1.8-.1-3.2-.1-1.4-.4-3-.9-4.8-.5-1.8-1.3-3.7-2.7-5.4-1.4-1.7-3.2-3.1-5.6-3.8-2.3-.8-5.1-.9-7.9-.8-2.8.1-5.7.7-8.7 1.6-2.9.9-5.8 2.1-8.7 3.4-2.8 1.4-5.6 2.9-8.3 4.5-2.7 1.6-5.2 3.3-7.6 5.1-4.8 3.5-9.2 6.9-12.9 10-7.3 6.2-11.7 10.8-11.7 10.8l-.3-.1z"/><path class="st3" d="M263.6 287.5s-20.7 65.6-50.4 105.3l-35.6.1s38.7-47.8 54.1-101.7c0 0-11.6-11.3-9-15.6 2.5-4.3 9.4 8.4 12.5 5.1 7.2-7.8 1.7-28.8 7.1-29.5 5.4-.7 5.2 18 4 21.6 2.7-4.1 7.1-2.4 5.8 2.9 2.9-4.5 8-.8 6.5 3.9 3.7-3.9 7.9.3 5 7.9z"/><path class="st5" d="M266.1 287.8s-20.9 65.5-50.7 105.1h-35.6s38.9-47.7 54.5-101.5c0 0-11.5-11.4-9-15.6 2.5-4.3 9.4 8.5 12.4 5.2 7.2-7.8 1.8-28.8 7.2-29.4s5.2 18 3.9 21.6c2.7-4.1 7.1-2.4 5.8 3 2.9-4.4 8-.8 6.4 3.9 3.9-4.1 8 .1 5.1 7.7z"/><path class="st2" d="M267.2 281.7c-.1-.4-.1-.8-.3-1.2-.1-.4-.3-.7-.6-1.1-.3-.3-.6-.6-.9-.8-.4-.2-.8-.4-1.2-.4h-.6c-.2 0-.4.1-.6.2-.2.1-.4.1-.6.2l-.5.3c-.1.1-.2.1-.3.2 0-.2 0-.4.1-.6v-.8c0-.3-.1-.5-.1-.8 0-.3-.1-.5-.2-.7-.1-.2-.2-.5-.4-.7-.1-.2-.3-.4-.5-.6-.2-.2-.4-.4-.6-.5-.2-.2-.5-.3-.7-.4-.3-.1-.5-.2-.8-.2-.3 0-.5-.1-.8 0-.3 0-.5 0-.8.2-.3.1-.5.2-.7.3-.2.1-.5.3-.6.5l-.1.1v-.1c0-.2.1-.5 0-.7 0-.2 0-.5-.1-.7-.1-.5-.2-1-.5-1.4-.1-.2-.3-.4-.5-.6l-.3-.3-.3-.2c-.2-.2-.5-.2-.7-.3-.3 0-.5-.1-.8-.1-.3 0-.5 0-.8.1-.3.1-.5.2-.7.3-.2.1-.4.2-.6.4-.1.1-.2.1-.3.2.1-.3.1-.7.1-1 .1-.9.2-1.9.2-2.8.1-1.9.1-3.7 0-5.6-.1-1.9-.3-3.7-.7-5.6-.2-.9-.5-1.8-.9-2.7-.4-.9-.9-1.8-1.9-2.4l-.4-.2c-.1 0-.3-.1-.5-.1-.4-.1-.4 0-.8 0-.6.1-1.1.4-1.5.8-.7.9-1 1.8-1.2 2.8-.4 1.9-.4 3.8-.5 5.6-.1 3.7-.2 7.4-.7 11-.3 1.8-.6 3.6-1.2 5.3-.3.9-.7 1.7-1.1 2.4-.2.4-.5.7-.7 1.1l-.4.5c-.1.1-.2.3-.4.3-.6.3-1.4 0-2.1-.5-.7-.5-1.4-1.1-2.1-1.7-1.4-1.2-2.7-2.6-4.3-3.6-.4-.2-.9-.5-1.4-.6-.5-.1-1.2 0-1.6.4-.8.7-1 1.9-.8 2.9.3 2 1.3 3.6 2.3 5.2 1 1.6 2.2 3 3.4 4.4 1.2 1.4 2.4 2.7 3.7 4l-2.9 9.6 3.2-9.6v-.2c-1.3-1.3-2.5-2.7-3.7-4.1-1.2-1.4-2.3-2.9-3.3-4.4-1-1.5-1.9-3.2-2.1-4.9-.1-.9.1-1.7.6-2.2.5-.5 1.4-.2 2.1.3 1.5 1 2.8 2.3 4.1 3.6.7.6 1.4 1.3 2.2 1.8.4.3.8.5 1.4.7.5.2 1.1.2 1.7-.1.3-.1.5-.3.7-.5l.4-.5c.3-.4.6-.8.8-1.2.5-.8.9-1.7 1.2-2.6.7-1.8 1-3.6 1.3-5.5.5-3.7.6-7.4.7-11.1.1-1.8.2-3.7.5-5.4.2-.9.4-1.7.9-2.3.2-.3.5-.4.9-.5h.6l.2.1.2.1c.6.3 1.1 1.1 1.5 1.9.4.8.6 1.7.8 2.5.4 1.8.6 3.6.7 5.4.1 1.8.1 3.7.1 5.5-.1 1.8-.2 3.7-.7 5.4-.1.2 0 .4.2.5.2.2.5.1.7-.1l.4-.5c.1-.2.3-.3.4-.5.1-.2.3-.3.5-.4.2-.1.3-.3.5-.3.2-.1.4-.2.5-.2.2-.1.4-.1.6-.1h.6c.2.1.4.1.5.2l.2.1.2.2c.2.1.2.3.4.5.2.3.3.7.4 1.1 0 .2 0 .4.1.6v.6c0 .4-.1.9-.2 1.3 0 .1 0 .3.1.4.2.1.4.1.5-.1l.4-.5c.1-.2.3-.3.5-.5s.3-.3.5-.4l.6-.3c.2-.1.4-.1.6-.1h.6c.2 0 .4.1.6.2l.6.3c.2.1.4.3.5.4.2.2.3.3.4.5l.3.6c.1.2.2.4.2.6.1.2.1.4.1.7 0 .2.1.5 0 .7 0 .2 0 .5-.1.7l-.2.7c0 .1 0 .2.1.3.1.1.3.1.4 0 .3-.2.5-.5.8-.7l.5-.3c.2-.1.3-.1.5-.2s.3-.1.5-.1.4-.1.5 0c.4 0 .7.1 1 .3.1.1.3.2.4.3l.4.4c.2.3.4.6.5 1 .2.3.2.7.3 1.1.1.4.1.8.1 1.1v1.2c0 .4-.1.8-.1 1.1l-.3 1.1c-.1.4-.2.7-.3 1.1l-1.4 4.5 1.6-4.4c.1-.4.3-.7.4-1.1l.3-1.1c.1-.4.1-.8.2-1.2 0-.4 0-.8.1-1.2.1-.9.1-1.3.1-1.6z"/></g></svg>