<svg xmlns="http://www.w3.org/2000/svg" width="429.7" height="406.5" viewBox="0 0 429.7 406.5"><style>.st0{fill:#533e29}.st1{fill:#f5f5f5}</style><g id="Layer_1"><path class="st1" d="M429.7 203.2c0 112.2-71.4 203.2-214.9 203.2C71.4 406.5 0 315.5 0 203.2 0 91 71.4 0 214.9 0s214.8 91 214.8 203.2z"/><path class="st0" d="M285.8 121.3c-7.6-36.7-40.3-68.4-79.6-63.9-34.4 3.9-68.6 31.1-66.6 68.3 1 17.9 10.5 35.2 27.6 42.2 16.4 6.7 36.3 3.7 48.2-9.9 4.3-4.9-2.9-12.2-7.2-7.2-9.9 11.4-26.8 13.4-40 6.4-14.9-7.9-20.6-26.4-17.9-42.3 6-35.4 50.3-55.8 82.3-43.9 29.7 11.1 53.1 48.2 42.8 80.2-5 15.4-12.7 23.4-24.7 34.5-11.4 10.6-22.5 22.8-30.2 33.8-18 25.9-18.8 42.4-14 82.5.8 6.4 11 6.5 10.2 0-5.3-43.8-6.2-59.4 26.5-94.8 12.6-13.7 21.5-22.1 33.1-36.8 11.2-14.3 13.1-31.7 9.5-49.1zM212.6 323c-.7 0-1.4 0-2.2.2-4.3.9-8.1 4.3-8.8 8.7-.5 3 .4 6 2.2 8.3.5 1.3 1.4 2.6 2.6 3.7 3.3 2.9 8.1 3.7 12.1 2.1 4.2-1.7 6.8-5.7 7.1-10.2.4-7.6-6.1-13.3-13-12.8z"/></g></svg>