<svg xmlns="http://www.w3.org/2000/svg" width="277.7" height="392.9"><style>.st1{fill:#533e29}.st4{fill:#f5f5f5}.st5{fill:#fddcbe}</style><g id="Layer_1"><path class="st5" d="M272.4 306.3S275.6-2 97 125.6c0 0-35.3 25-52.8 186.5 92.4 147.7 228.2-5.7 228.2-5.7z"/><path class="st4" d="M44.3 312S170 327.3 272 288.5l5.7 104.4h-228L44.3 312z"/><path class="st1" d="M229.5 0s95.8 141.6-142 167l1.6 49s-22.6-20.6-30 4.7c-7.2 25.8 29.2 14 29.2 14-3.2 6.8-23 53.7-44 77.4C42.8 314-43.2 126 28.8 124c-3.5-43.6 27.8-72.4 73.4-83C172.6 24.5 201.5 95.3 229.6 0z"/><path d="M91.4 393c-2.4-20-6-38-7.6-61.5l-31.6 3c1 18 3 40.4 5 58.3h34.2zm123.5 0h17.7c3.4-6 7.6-12 12.2-17.7l-7-40.3 6.5-11.4-5.5-9.3-20 3-4 8 8.8 11.4-9 56.2z" fill="#e6e7e8"/><path class="st1" d="M220.2 393h33L238 335l6.5-11.5-5.4-9.2-19.8 3-4 8 8.8 11.4z"/><path class="st5" d="M96.2 393c-4.8-21.3-8.4-39-12.8-64.6l-31 6c2.7 18.7 6.4 40.2 10.3 58.4h33.5z"/><path class="st1" d="M154.8 205c3.2 9.8 1.5 16.3-2.7 17.7-4 1.3-9.2-3-12.4-13s-1.5-16.3 2.7-17.7c4.2-1.4 9.3 3 12.5 13zm85.5-25c3.2 10 1.5 16.5-2.7 18-4.2 1.2-9.3-3-12.5-13-3-10-1.4-16.4 2.8-17.8 4.2-1.4 9.3 3 12.5 13z"/><path class="st4" d="M83.3 328.4l-31 6c1.3 9.6 3 19.8 4.8 30L89 358c-1.8-9-3.5-18.5-5.5-29.6z"/><path class="st1" d="M165.6 271.3s4.2-4.8 11.2-11.4c1.7-1.8 3.7-3.5 5.8-5.3 2-1.8 4.3-3.6 6.7-5.5 2.4-2 5-3.7 7.6-5.4 2.5-1.8 5.3-3.5 8.2-5 3-1.5 5.8-3 9-4 3-1 6-1.8 9.3-2l1.2-.2h3.5l2.3.5 2.2.8c1.4.6 2.7 1.3 4 2.2 1 1 2 2 2.7 3 .7 1.2 1.3 2.3 1.6 3.4.4 1 .7 2.2.8 3.2.3 2 .3 3.8.2 5.2 0 1.4-.3 2.5-.4 3.3l-.3 1.2h-.3V254v-3.2c-.2-1.4-.5-3-1-4.8-.5-1.8-1.3-3.7-2.7-5.4-1.4-1.7-3.2-3-5.6-3.8-2.3-.8-5-1-8-.8-2.7 0-5.6.7-8.6 1.6-2.8 1-5.7 2-8.6 3.4-2.8 1.4-5.6 3-8.3 4.5-2.6 1.6-5 3.3-7.5 5l-13 10c-7.2 6.3-11.6 11-11.6 11l-.4-.2z"/><path d="M263.6 287.5S243 353 213.2 392.8h-35.6s38.7-47.7 54-101.6c0 0-11.5-11.3-9-15.6 2.6-4.3 9.5 8.4 12.6 5 7.2-7.7 1.7-28.7 7-29.4 5.5-.7 5.3 18 4 21.6 2.8-4 7.2-2.4 6 3 2.8-4.6 8-1 6.4 3.8 3.7-4 8 .3 5 8z" fill="#f2f2f2"/><path class="st5" d="M266 287.8s-20.8 65.5-50.6 105h-35.6s39-47.6 54.5-101.4c0 0-11.5-11.4-9-15.6 2.5-4.3 9.4 8.5 12.4 5.2 7.2-7.8 1.8-28.8 7.2-29.4s5 18 3.8 21.6c2.7-4 7-2.4 5.8 3 3-4.4 8-.8 6.4 4 4-4.2 8 0 5 7.6z"/><path d="M267.2 281.7c0-.4 0-.8-.3-1.2l-.7-1-1-1-1-.3h-.7c-.2 0-.4 0-.6.2-.2 0-.4 0-.6.2l-.5.3h-.4v-1.3-.8c0-.4 0-.6-.2-.8l-.4-.7c0-.2-.3-.4-.5-.6l-.6-.6-.8-.4-.8-.2h-.8c-.3 0-.5 0-.8.2-.3 0-.5.2-.7.3l-.5.5v-.7s0-.4-.2-.6c0-.5-.2-1-.5-1.4 0-.2-.3-.4-.5-.6l-.3-.3h-.3c-.2-.3-.5-.3-.7-.4h-1.6c-.3 0-.5.2-.7.3-.2 0-.4 0-.6.3l-.2.2v-1l.3-2.8c.2-2 .2-3.7 0-5.6 0-1.8-.2-3.6-.6-5.5-.2-1-.5-1.8-1-2.7-.3-1-.8-1.8-1.8-2.4l-.4-.2h-.5c-.4-.2-.4 0-.8 0-.7 0-1.2.3-1.6.7-.7.8-1 1.7-1.2 2.7-.4 2-.4 3.8-.5 5.6 0 3.7-.2 7.4-.7 11-.3 1.8-.6 3.6-1.2 5.3-.3 1-.7 1.7-1 2.4l-.8 1-.4.6s-.2.3-.4.3c-.6.2-1.4 0-2-.6-.8-.5-1.5-1-2.2-1.7-1.4-1.2-2.7-2.6-4.3-3.6-.4 0-1-.4-1.4-.5-.5 0-1.2 0-1.6.4-.8.6-1 1.8-.8 2.8.2 2 1.2 3.6 2.2 5.2 1 1.6 2.2 3 3.4 4.4l3.7 4-3 9.6 3.3-9.6v-.2l-3.7-4c-1.3-1.5-2.4-3-3.4-4.5s-2-3.2-2-5c-.2-.8 0-1.6.5-2 .6-.6 1.5-.3 2.2.2 1.5 1 2.8 2.2 4 3.5l2.3 1.8 1.4.7c.4.2 1 .2 1.6 0l.7-.6.4-.5.8-1.3c.5-.8 1-1.7 1.2-2.6.7-1.7 1-3.5 1.3-5.4.5-3.7.6-7.4.7-11 0-2 .2-3.8.5-5.5.2-.8.4-1.6 1-2.2 0-.3.4-.4.8-.5h.8l.2.2c.6.3 1 1 1.5 2 .4.7.6 1.6.8 2.4.4 1.7.6 3.5.7 5.3v5.5c0 1.8 0 3.7-.6 5.4 0 .2 0 .4.2.5.2.2.5 0 .7 0l.4-.6.4-.4.6-.4c.2 0 .3-.3.5-.3l.6-.3h1.7l.2.2h.2l.4.6c.3.3.4.7.5 1v2.9h.5l.4-.6c0-.2.3-.3.5-.5l.4-.4.6-.2H258.8l.6.4c.2 0 .4.3.5.4 0 .2.2.3.3.5l.3.7.2.6v.7c0 .2.2.5 0 .7v.7l-.2.7v.4h.5l1-.7.4-.3c.2 0 .3 0 .5-.2s.2 0 .4 0h.5c.3 0 .6 0 1 .2l.3.3.4.4.5 1 .3 1.2v3.3l-.3 1.2c0 .4-.2.7-.3 1l-1.5 4.6 1.6-4.4.5-1.2.3-1c0-.5 0-1 .2-1.3v-1.2l.2-1.6z" fill="#bea58f"/></g></svg>