<svg xmlns="http://www.w3.org/2000/svg" width="612" height="614"><circle fill="#FFF" cx="307" cy="308" r="306"/><g fill="#5B5BF6"><path d="M307 318c42.6 0 77-40.3 77-90 0-69.2-34.4-90.3-77-90.3s-77 21-77 90.2c0 49.7 34.4 90 77 90zM477.2 451l-39-87.7c-1.7-4-4.8-7.3-8.7-9.3l-60.3-31.4c-1.4-.7-3-.6-4.2.3-17 12.8-37 19.6-58 19.6s-41-6.8-58-19.7c-1.2-1-3-1-4.2-.4L184.5 354c-4 2-7 5.3-8.8 9.3l-39 87.6c-2.6 6-2 13 1.6 18.4 3.6 5.6 9.7 9 16.3 9h304.8c6.6 0 12.7-3.4 16.3-9 3.6-5.5 4.2-12.4 1.5-18.5z"/></g></svg>