<svg xmlns="http://www.w3.org/2000/svg" width="612" height="614"><circle fill="#FFF" cx="307" cy="308" r="306"/><path fill="#00BD6C" d="M307.5 139c93.8 0 170.2 73.7 170.2 164 0 90.5-76.4 164-170.2 164-31 0-61.4-8-88-23.5l27-42.7c18.3 10.6 39.4 16.3 61 16.3 65.2 0 118.3-51 118.3-114 0-62.6-53-114-118.3-114-63 0-114.3 47.8-118 107.5V321l54-20.7c2-.7 4 0 5.2 1.4 1 1.5 1 3.5 0 5l-82 102.3c-1 1-2 1.6-3.4 1.6-1.3 0-2.6-.6-3.4-1.6L78.3 306.6c-.6-.7-1-1.6-1-2.5 0-.6.4-1.5 1-2.2 1-1.5 3.2-2 5-1.4l54 20.6v-18c0-6.3 2-27.3 3-30.7 15-75.8 84.2-133.2 167-133.2z"/></svg>