<svg xmlns="http://www.w3.org/2000/svg" width="612" height="611"><circle fill="#FFF" cx="305.7" cy="306" r="306"/><g fill="#00BD6C"><path d="M276 432.4l138-118c2-2 4-5.6 4-9.2 0-3.3-2-7.2-4-9L276 178c-2-2-4.8-2-7.2 0-2 2-4 5.2-4 9v55.4H146.4c-4 0-6.3 4.2-6.3 9.7v107c0 5.8 3 10.4 7 10.4h119v55.4c0 3.2 2 6.5 4 8.8h3c1.6 0 3 0 4-1.6l-1 1z"/><path d="M443 175.7h-84c-2.4 0-4 2.3-4 5.2v16c0 3 1.6 5.3 4 5.3h70.2c5 0 9.4 2.6 9.4 9.8v189c0 6.5-7 7.5-11.7 7.5h-70.7c-2.7 0-4 2.6-4 5.8v16.3c0 3.2 1.3 5.5 4 5.5h86c15.5 0 28.8-7 28.8-29V205.6c0-22.8-13.6-29.3-30-29.3l1.6-.6z"/></g></svg>