<svg xmlns="http://www.w3.org/2000/svg" viewBox="315.6 490.2 156.8 156.8"><circle fill="#FFF" cx="394" cy="568.6" r="78.4"/><g fill="#00BD6C"><path d="M386.2 607.7l35.4-36.3c.5-.6 1-1.7 1-2.8 0-1-.5-2.2-1-2.8l-35.4-36.3c-.5-.6-1.2-.6-1.8 0-.5.6-1 1.6-1 2.8v17H353c-1 0-1.6 1.3-1.6 3V585c0 1.8.8 3.2 1.8 3.2h30.5v17c0 1 .4 2 1 2.7h.8c.3 0 .7 0 1-.5z"/><path d="M429 528.8h-21.5c-.6 0-1 .7-1 1.6v5c0 1 .4 1.7 1 1.7h18c1.3 0 2.4.8 2.4 3v58c0 2-1.8 2.3-3 2.3h-18c-.7 0-1 .8-1 1.8v5c0 1 .3 1.7 1 1.7h22c4 0 7.4-2.2 7.4-9V538c0-7-3.5-9-7.7-9z"/></g></svg>