<svg xmlns="http://www.w3.org/2000/svg" viewBox="0 0 438.5 438.5"><path d="M5.4 146h94.2v282.8H5.4zm403.4 25.7c-19.7-21.6-46-32.4-78.5-32.4-12 0-23 1.5-32.7 4.5-9.8 3-18 7-24.8 12.4-6.8 5.3-12 10.3-16 14.8-4 4.4-7.6 9.4-11.3 15v-40h-94l.4 13.6V244c0 47.4 0 109-.7 185h94V271c0-9.7 1-17.4 3-23 4-9.8 10-18 18.2-24.5 8-6.6 18-9.8 30-9.8 16.5 0 28.5 5.6 36.2 17 7.7 11.3 11.5 27 11.5 47V429h94V267c0-42-10-73.6-29.8-95zM53 9.7c-15.7 0-28.5 4.6-38.3 14C5 32.7 0 44.3 0 58.4c0 14 4.8 25.5 14.3 35 9.5 9.2 22 13.8 37.7 13.8h.5c16 0 29-4.6 38.7-14 9.8-9.3 14.6-21 14.4-34.8-.2-14-5-25.7-14.5-35-9-9.2-22-13.8-38-13.8z" fill="#287bbc"/></svg>