<svg xmlns="http://www.w3.org/2000/svg" viewBox="315.6 490.2 156.8 156.8"><circle fill="#FFF" cx="394" cy="568.6" r="78.4"/><g fill="#00BD6C"><path d="M392.3 569.2c13.4 0 18.2-13.4 19.5-24.4 1.5-13.6-5-23.8-19.5-23.8-14.6 0-21 10.2-19.5 23.8 1.3 11 6 24.4 19.5 24.4z"/><path d="M421.6 574.8h1.3l-3-2.3c-2.7-2-6-2.5-9-3.7-1.5-.6-2.8-1-4-1.8-4 4.5-9.3 6.8-15.5 6.8-6 0-11.5-2.3-15.6-6.8-1 .7-2.5 1.2-4 1.8-3 1.2-6 1.8-8.8 3.7-4.5 3.3-5.7 10.8-6.6 16-.5 4-1 8.4-1.2 12.7 0 3.3 1.5 3.8 4.3 4.8 3.7 1.2 7 2.2 11 3 7 1.4 14 2.5 21.2 2.6 3.5 0 7-.3 10.5-.8-2.7-3.7-4-8.2-4-13 0-12.7 10-23 23-23z"/><path d="M421.6 579.4c-10.2 0-18.4 8.3-18.4 18.4 0 10.2 8.2 18.4 18.4 18.4 10 0 18.4-8.2 18.4-18.4 0-10-8.3-18.4-18.4-18.4zm8 21.6h-5v4.8c0 1.8-1.3 3.2-3 3.2s-3.2-1.4-3.2-3.2V601h-5c-1.6 0-3-1.5-3-3.2 0-1.7 1.4-3 3-3h5v-5c0-1.8 1.4-3.2 3.2-3.2 1.7 0 3 1.4 3 3.2v5h5c1.8 0 3.2 1.3 3.2 3s-1.4 3.2-3.2 3.2z"/></g></svg>