<svg xmlns="http://www.w3.org/2000/svg" viewBox="315.6 490.2 156.8 156.8"><circle fill="#FFF" cx="394" cy="568.6" r="78.4"/><g fill="#2198F3"><path d="M384.3 538c-22.4 0-40.6 14-40.6 31.3 0 8.5 4.4 16.2 11.5 21.8-.4 6-1.8 13-5.8 16.8 8 0 16-5 21.2-9 4.3 1.3 9 2 13.7 2 22.5 0 40.7-14 40.7-31.4 0-17.2-18.2-31.2-40.7-31.2z"/><path d="M438.4 572.4c3.4-4.6 5.4-10 5.4-15.6 0-17.2-18.2-31.2-40.7-31.2-9.7 0-18.7 2.7-26 7.2 3.5-.6 7-1 10.6-1 24 0 43.7 15.4 43.7 34.4 0 7.5-3 14.4-8.2 20 5.3 4 13.4 9 21.4 9-5.7-5.4-6-17.3-6-22.8z"/></g></svg>