<?xml version="1.0" encoding="utf-8"?>
<!-- Svg Vector Icons : http://www.onlinewebfonts.com/icon -->
<!DOCTYPE svg PUBLIC "-//W3C//DTD SVG 1.1//EN" "http://www.w3.org/Graphics/SVG/1.1/DTD/svg11.dtd">
<svg version="1.1" xmlns="http://www.w3.org/2000/svg" xmlns:xlink="http://www.w3.org/1999/xlink" x="0px" y="0px" viewBox="0 0 1000 1000" enable-background="new 0 0 1000 1000" xml:space="preserve">
<g><path d="M436.5,399.3c-4,7.1-54.7,97.2-152.3,270.2c-10.7,18.2-23.5,27.3-38.5,27.3H104.1c-8.3,0-14.4-3.4-18.4-10.1s-4-13.8,0-21.3l149.9-265.4c0.4,0,0.4-0.2,0-0.6L140.2,234c-4.7-8.7-4.9-16-0.6-21.9c3.6-5.9,9.9-8.9,19-8.9h141.6c15.8,0,28.8,8.9,39.1,26.7L436.5,399.3z M914,18.9c4.3,6.3,4.3,13.6,0,21.9L601.2,594.2v0.6l199.1,364.4c4.3,7.9,4.5,15.2,0.6,21.9c-4,5.9-10.3,8.9-19,8.9H640.3c-16.6,0-29.6-8.9-39.1-26.7L400.3,594.8c7.1-12.6,112-198.7,314.6-558.1c9.9-17.8,22.5-26.7,37.9-26.7h142.8C904.3,10,910.5,13,914,18.9z"/></g>
</svg>