<svg xmlns="http://www.w3.org/2000/svg" width="612" height="614"><circle fill="#FFF" cx="305.6" cy="308" r="306"/><circle fill="#2198F3" cx="202.9" cy="169.8" r="29.3"/><path fill="#2198F3" d="M446.3 208.4c-58.3 0-38.2-.5-65 0l-42.6-23.2-19.6-56c-2-5.8-7.2-9.4-13-9.5h-.9c-5.6 0-11 3.7-13 9.4l-19.5 56.2-42.7 23.2c-26.7-.5-6.6 0-65 0-18.5 0-33.8 15-34 33.4v103.8c0 7.8 6.5 14 14.3 14 8 0 14.2-6.2 14.2-14V241.7c0-1.6 1.4-3 3-3 1.7 0 3 1.4 3 3v237.5c0 9.4 7.7 17 17 17 9.4 0 17-7.6 17-17V343.8h7.3v135.5c0 9.4 7.6 17 17 17s17-7.6 17-17v-244h-.4l50.8-28c3-1.6 5.4-4.4 6.5-7.6l8.3-23.6 8.3 23.7c1 3.2 3.3 6 6.3 7.7l50.7 28h-.3v244c0 9.3 7.6 17 17 17s17-7.7 17-17V343.7h7.3v135.5c0 9.4 7.6 17 17 17s17-7.6 17-17V242c0-1.8 1.2-3.2 3-3.2 1.6 0 3 1.4 3 3v103.8c0 7.8 6.3 14 14 14 8 0 14.3-6.2 14.3-14V241.8c0-18.4-15.4-33.4-34-33.4z"/><circle fill="#2198F3" cx="408.3" cy="169.8" r="29.3"/></svg>